<svg preserveAspectRatio="xMidYMid meet" data-bbox="-0.13 -0.114 165.169 308.625" viewBox="-0.13 -0.114 165.169 308.625" xmlns="http://www.w3.org/2000/svg" data-type="shape" role="presentation" aria-hidden="true" aria-label="">
    <g>
        <path d="M141 121.5c0 4.6-1.8 9-3.2 13.2-11.6 34.1-30.1 65.9-46.1 97.9-2.1 16-2.7 32.3-4.7 48.3-.7 5.1-2.3 21.3-4.5 24.5s-5.3 3.3-8.5 3c1.5-9.2 3.7-18.3 4.9-27.6 1.1-8.7 3.5-24.7 3.2-32.9s-4.1-8.9-5.4-12.7c-5-14.7-3.4-35.4-17.2-45.8s-39.3 8.5-57.5 2.5c12.6-9.5 28.5-19.1 44.8-14.8 14 3.7 25.7 14.6 31.1 27.9l5.1 13.4c0-13.9 1.6-27.6 1.1-41.5-.2-4.9-.5-12.3-1.1-16.9-1.2-9.5-12.3-16-13.9-25.6 5.1 6.7 11.7 11.9 17.5 18l5.5-6.5 8-7.5c-.8 4.3-4.1 8-5.5 12-1.9 5.8-2.3 17.8-2.6 24.4s-.2 15.7 0 23.1c0 1.2-.8 3.7 1 3.5 0-2.7.7-5.4 1.5-8 5.3-17.1 26.7-56.5 40-68 .8-.7 5.8-4.7 6.5-4Z"></path>
        <path d="M114 9.5c4-.7 7-1.6 11 0l-2 7c7.8-5.4 3.8 3.1 4 6.5s1.8 3 1.7 4.9-2 5.2-1.8 7.7c-8.5-4.5-12.8-7.6-21-.5s-6 14.4-15.4 13.5-12.8-9.9-13.6-17.4l2.9-.6c.6-7 5.1-14.8 10.8-18.7S114-.8 114 9.7Z"></path>
        <path d="M140.8 83.7c1.2 1.9-.4 5.8 5.2 5.8-.3 1.8-3.5 2-3.9 3.6s1.3 3.2.5 4.4c-1.2 1.8-5.8 2.4-7.5 3.5s-1.9 3.3-3.7 4.3-12.2 4.4-14.1 4.9c-9.6 2.5-24.4 1.4-31.8-5.7s-1.3-3-2.1-3.1c-2.8-.3-12.7 5.8-14.3-1.4s4.9-.5 6.3-.6c9.5-.8 24.5-5.9 31.6-12.4s4.4-6.6 6.8-7.2 8.2-1.1 9.6-1c2 .1 17 4.1 17.5 5Z"></path>
        <path d="m60 73.5-17.6 9.9c-4.8 6 3 8.2 2.5 10.5-3.3 3.9-11.4 5.5-16.3 4.4s-5.3-4.3-9.7-2.8l.9-3.4c-.5-2.8-7.4-.8-9.9-2.1s-2-4.3-3.1-5.9C5.1 81.5.2 80.6-.1 75.9s1.7-5.8 2.9-7 2.9-1.2 4-2 1.3-2.5 2.1-2.9c1.5-.9 3.6-.2 5.2-.8 4.1-1.3 8.3-5.2 11.8-.2s1.3 6.6 7.7 9.3 17.2 1.7 26.3 1.2Z"></path>
        <path d="M145.8 43.7c.5.8 0 2.6.7 3.8 1.3 2.1 5.1 1.7 4.5 7.4s-11.1 14.8-18.2 16.9-11.7 2.8-18.8 5.2c-7.8 2.6-13.6-.9-21-2.5l15.3-9.2c4-2.4 11.1-6.7 14.6-9.4 5.1-3.9 10-14.6 17.4-14.2s5.3 1.6 5.5 1.9Z"></path>
        <path d="M39.2 29.6c-.7.8 0 6.3.3 7.9 1.2 5.6 6.8 11.3 10.1 15.9l7.5 5c-4.7.6-9.6 4.8-14.5 4s-7.1-6.1-9.6-7.5c-4.4-2.3-9.2 0-12.8-5.2s-1.7-5.9-2.4-9.6-1.5-2.3-1.6-3.4 2.9-8.9 3.8-9.9 7.3-5.1 7.7-5.3c1.1-.3 13.9-2.1 14.6-2 1.8.3 3.5 2 4.7 3.3-2 1.1-3.3 4.4-4.5 5.5s-3 .9-3.3 1.1Z"></path>
        <path d="M66.3 106.2c4.8 3.5 9.7 2.3 15 1.2 4.6 7.7 13.8 12 22.7 11.1.9 6.6-3.7 13-8 17.5s-7.5 6.8-8 7c-2.4 1.3-5.1-1.5-7-3s-13.1-14.1-14.2-16.8c-1.9-4.5-2.4-14.8-2.3-19.7.9.5 1.1 2.2 1.8 2.7"></path>
        <path d="M78.8 76.8c7.5-.2 14.7-.2 21.8 2.6s1.1 5.3-1.6 7.5c-11.6 9.2-33 11.6-46.7 6.8S42.2 87.9 49.1 83s19.3-5.9 29.7-6.3Z"></path>
        <path d="M100.8 53.2c3-2.9 2.6-11.2 8.9-15.6 8.9-6.2 6.7-1 10.3 1.4s3.4-1.3 4.5.4c3.1 12.3-3.5 12.3-10.9 17.2s-9.3 5.7-15 9-6.7 5.6-8.7 6.3-9-6.1-8.6-7.5c2.4-4 5.4-8.7 10.3-9.7s7.1.4 9-1.5Z"></path>
        <path d="M83 6.5c3.2-3.6 6.4-3.2 9 1-9.9 3-11.6 13.1-16 21-6.2-5.4-15.7-8.6-24-8-.8-.7 1.2-8.1 2.2-8.8s2.6 0 3.8-.7C60.6 9.5 63.7 2.3 69.8.7S83.5-.7 83.1 6.5Z"></path>
        <path d="M83 74.5c-4.6-2.3-9.7.4-13.4 0S64.5 71.8 62 71c-8.1-2.7-16 .7-24.8-2.2S27.1 61.4 27 56.5c7.5 5.8 15.7 10.3 25.5 9.1 1.8.1 1.7-1.9 3.1-2.9 3.4-2.4 5.5-2 9.4-1.1-2.9-8.7 17.7-9.6 18-5.5-6.2 7.8-6 10.9 0 18.5Z"></path>
        <path d="M80 49.5c-7 .8-11.8-5.6-18.3-8.2s-11.5-.5-14-9-.9-4.5-.7-6.8c10-1.2 20.2-1 26.2 8.3 1.1 1.7 7.6 15 6.8 15.7"></path>
        <path d="M162.1 64.7c-.3.5 1.2 2.5-.2 5.2-4.8 8.9-20.4 8.5-28.9 6.7l9.4-3.1c6.8-3.9 11.9-12.2 11.3-20.2s-3.1-5.5-3.7-8.6c5.2.5 11.2 3.2 12.4 8.9s-.5 2.3-.3 3.4c.4 1.5 2.6 2.2 2.9 4.2.4 3.6-2.4 2.9-3 3.6Z"></path>
        <path d="M60 1.5c-2 7.7-15.6 8.2-11 18-2.6.1-4.3-2.3-6.7-2.8s-13.3.5-15.6 1-6.4 4.1-6.7 3.8c-.3-3.1.1-6.9 3.2-8.3s4.1-.5 4.6-.9.3-3.4 1.7-4.8c2.9-3.2 8.9-2.4 11.5 1l2.5-7z"></path>
        <path d="M129 43.5c1.6-11.9 3.9-20.4 2.1-32.6s5.5 1.9 5.9 2.1c.9.5 3.4-1.4 4.6.4 1.8 7.1 1.8 12.1-1.4 18.7s-8.8 13.8-11.2 11.3Z"></path>
        <path d="M59.3 46.2c2.5 1.6 6.3 2.1 9.1 3.3l.6 2-7.3 3.9C54.4 50.8 43.3 43.5 45 33.6l4.9 7.6c1.9 2.2 5.3 1.7 7.4 2.6s1.5 2.2 2 2.5Z"></path>
    </g>
</svg>